<?xml version="1.0" encoding="UTF-8" standalone="no" ?>
<!DOCTYPE svg PUBLIC "-//W3C//DTD SVG 1.1//EN" "http://www.w3.org/Graphics/SVG/1.1/DTD/svg11.dtd">
<svg xmlns="http://www.w3.org/2000/svg" xmlns:xlink="http://www.w3.org/1999/xlink" version="1.1" width="640" height="640" viewBox="0 0 640 640" xml:space="preserve">
<desc>Created with Fabric.js 4.6.0</desc>
<defs>
</defs>
<g transform="matrix(1.2 0 0 0.84 320 320)" id="SOg90Gr5BVPITA9jLXVkQ"  >
<path style="stroke: rgb(173,114,50); stroke-width: 0; stroke-dasharray: none; stroke-linecap: butt; stroke-dashoffset: 0; stroke-linejoin: miter; stroke-miterlimit: 4; fill: rgb(255,218,161); fill-rule: nonzero; opacity: 1;" vector-effect="non-scaling-stroke"  transform=" translate(0, 0)" d="M -42.34273 -42.34273 L 27.12281 -42.34273 L 27.12281 -42.34273 C 35.52854 -42.34273 42.34273 -32.60047 42.34273 -20.582780000000003 L 42.34273 20.582779999999996 L 42.34273 20.582779999999996 C 42.34273 32.600469999999994 35.52854000000001 42.342729999999996 27.12281 42.342729999999996 L -27.12281 42.342729999999996 L -27.12281 42.342729999999996 C -35.52854 42.342729999999996 -42.34273 32.600469999999994 -42.34273 20.582779999999996 z" stroke-linecap="round" />
</g>
<g transform="matrix(1.2 0 0 0.84 310.23 308.81)" id="VUNMuvgekhw6zYWJc490C"  >
<path style="stroke: rgb(173,114,50); stroke-width: 0; stroke-dasharray: none; stroke-linecap: butt; stroke-dashoffset: 0; stroke-linejoin: miter; stroke-miterlimit: 4; fill: rgb(255,188,68); fill-rule: nonzero; opacity: 1;" vector-effect="non-scaling-stroke"  transform=" translate(0, 0)" d="M -42.34273 -42.34273 L 27.12281 -42.34273 L 27.12281 -42.34273 C 35.52854 -42.34273 42.34273 -32.60047 42.34273 -20.582780000000003 L 42.34273 20.582779999999996 L 42.34273 20.582779999999996 C 42.34273 32.600469999999994 35.52854000000001 42.342729999999996 27.12281 42.342729999999996 L -27.12281 42.342729999999996 L -27.12281 42.342729999999996 C -35.52854 42.342729999999996 -42.34273 32.600469999999994 -42.34273 20.582779999999996 z" stroke-linecap="round" />
</g>
<g transform="matrix(0.67 0 0 0.67 314.49 308.81)" id="IFaN65B_47kshU9chSm98"  >
<g style="" vector-effect="non-scaling-stroke"   >
		<g transform="matrix(1 0 0 1 -4.8 -5.4)" id="ozGcHlq_-Lo5lFlY7D4G3"  >
<path style="stroke: none; stroke-width: 1; stroke-dasharray: none; stroke-linecap: butt; stroke-dashoffset: 0; stroke-linejoin: miter; stroke-miterlimit: 4; fill: rgb(179,181,179); fill-rule: nonzero; opacity: 1;" vector-effect="non-scaling-stroke"  transform=" translate(-35.2, -34.6)" d="M 40.4 69.2 L 12.399999999999999 69.2 L 12.399999999999999 14.9 L 27.299999999999997 14.9 L 27.299999999999997 0 L 58 0 L 58 43.7 C 55.5 42 52.6 41.1 49.4 41.1 C 46 41.1 42.8 42.2 40.099999999999994 44.2 C 33.3 49.300000000000004 31.899999999999995 59.1 36.99999999999999 65.9 C 38 67.2 39.2 68.3 40.4 69.2 z M 25.8 0.8 L 13.4 13.2 L 25.8 13.2 L 25.8 0.8 z" stroke-linecap="round" />
</g>
		<g transform="matrix(1 0 0 1 11.45 21.3)" id="fHk22X31Upu2dj-TJ4UXR"  >
<path style="stroke: none; stroke-width: 1; stroke-dasharray: none; stroke-linecap: butt; stroke-dashoffset: 0; stroke-linejoin: miter; stroke-miterlimit: 4; fill: rgb(179,181,179); fill-rule: nonzero; opacity: 1;" vector-effect="non-scaling-stroke"  transform=" translate(-51.45, -61.3)" d="M 59.7 66.6 C 62.2 63.99999999999999 63.7 60.599999999999994 63.7 56.699999999999996 C 63.7 48.8 57.300000000000004 42.5 49.5 42.5 C 41.6 42.5 35.3 48.9 35.3 56.7 C 35.3 64.60000000000001 41.699999999999996 70.9 49.5 70.9 C 51.9 70.9 54.2 70.30000000000001 56.2 69.30000000000001 L 63.6 79.20000000000002 C 64.3 80.20000000000002 65.8 80.40000000000002 66.7 79.60000000000002 C 67.7 78.90000000000002 67.9 77.40000000000002 67.10000000000001 76.50000000000003 L 59.7 66.6 z" stroke-linecap="round" />
</g>
		<g transform="matrix(1 0 0 1 9.45 16.8)" id="6cJHyC9AWF45JmPPXCYKa"  >
<path style="stroke: none; stroke-width: 1; stroke-dasharray: none; stroke-linecap: butt; stroke-dashoffset: 0; stroke-linejoin: miter; stroke-miterlimit: 4; fill: rgb(255,255,255); fill-rule: nonzero; opacity: 1;" vector-effect="non-scaling-stroke"  transform=" translate(-49.45, -56.8)" d="M 60 56.7 C 60 59.300000000000004 59 61.7 57.4 63.6 C 56.4 64.7 55.199999999999996 65.7 53.8 66.3 C 52.5 66.89999999999999 51 67.3 49.4 67.3 C 43.6 67.3 38.9 62.599999999999994 38.9 56.8 C 38.9 51 43.6 46.3 49.4 46.3 C 55.199999999999996 46.3 60 50.8 60 56.7 z" stroke-linecap="round" />
</g>
</g>
</g>
</svg>